<mxfile host="Electron" modified="2024-04-21T02:35:18.267Z" agent="Mozilla/5.0 (Windows NT 10.0; Win64; x64) AppleWebKit/537.36 (KHTML, like Gecko) draw.io/24.2.5 Chrome/120.0.6099.109 Electron/28.1.0 Safari/537.36" etag="A2p5iexNfm-TNWZo0ixJ" version="24.2.5" type="device">
  <diagram name="Página-1" id="1g1su67sW3YCKkkAfWSR">
    <mxGraphModel dx="1420" dy="830" grid="1" gridSize="10" guides="1" tooltips="1" connect="1" arrows="1" fold="1" page="1" pageScale="1" pageWidth="827" pageHeight="1169" background="#CCE5FF" math="0" shadow="0">
      <root>
        <mxCell id="0" />
        <mxCell id="1" parent="0" />
        <mxCell id="ICj-jm8vYPz_5dGz5csU-1" value="&lt;font style=&quot;font-size: 16px;&quot; color=&quot;#000000&quot; face=&quot;Comic Sans MS&quot;&gt;&lt;b&gt;7 Hacer un programa para ingresar una lista de números que finaliza cuando se&lt;br&gt;ingresa un cero, luego informar el máximo.&lt;br&gt;Ejemplo A: 5, 10, 20, 8, 25, 13, 35, -8, -5, 20, 0. Se listará Máximo 35.&lt;br&gt;Ejemplo B: 5, 10, 20, 8, 55, 13, 55, -8, -5, 20, 0. Se listará Máximo 55.&lt;br&gt;Ejemplo C: -15, -10, -20, -8, -55, -13, -55, -8, -5, -20, 0. Se listará Máximo -5.&lt;/b&gt;&lt;/font&gt;" style="text;whiteSpace=wrap;html=1;fontFamily=Architects Daughter;fontSource=https%3A%2F%2Ffonts.googleapis.com%2Fcss%3Ffamily%3DArchitects%2BDaughter;" parent="1" vertex="1">
          <mxGeometry x="50" y="10" width="700" height="120" as="geometry" />
        </mxCell>
        <mxCell id="pmeenIg2T-Wo_KydRhbx-96" value="" style="group;aspect=fixed;" vertex="1" connectable="0" parent="1">
          <mxGeometry x="130" y="170" width="470" height="890" as="geometry" />
        </mxCell>
        <mxCell id="pmeenIg2T-Wo_KydRhbx-6" value="" style="group;aspect=fixed;" vertex="1" connectable="0" parent="pmeenIg2T-Wo_KydRhbx-96">
          <mxGeometry x="210" width="50" height="50" as="geometry" />
        </mxCell>
        <mxCell id="pmeenIg2T-Wo_KydRhbx-1" value="" style="strokeWidth=2;html=1;shape=mxgraph.flowchart.start_2;whiteSpace=wrap;rounded=0;labelBackgroundColor=none;strokeColor=#000000;align=center;verticalAlign=middle;fontFamily=Helvetica;fontSize=12;fontColor=default;fillColor=#d5e8d4;" vertex="1" parent="pmeenIg2T-Wo_KydRhbx-6">
          <mxGeometry width="50" height="50" as="geometry" />
        </mxCell>
        <mxCell id="pmeenIg2T-Wo_KydRhbx-3" value="&lt;b&gt;&lt;font style=&quot;font-size: 22px;&quot; color=&quot;#000000&quot; face=&quot;Comic Sans MS&quot;&gt;I&lt;/font&gt;&lt;/b&gt;" style="text;strokeColor=none;align=center;fillColor=none;html=1;verticalAlign=middle;whiteSpace=wrap;rounded=0;fontFamily=Architects Daughter;fontSource=https%3A%2F%2Ffonts.googleapis.com%2Fcss%3Ffamily%3DArchitects%2BDaughter;" vertex="1" parent="pmeenIg2T-Wo_KydRhbx-6">
          <mxGeometry x="10" y="10" width="30" height="30" as="geometry" />
        </mxCell>
        <mxCell id="pmeenIg2T-Wo_KydRhbx-4" style="edgeStyle=orthogonalEdgeStyle;rounded=0;sketch=1;hachureGap=4;jiggle=2;curveFitting=1;orthogonalLoop=1;jettySize=auto;html=1;exitX=0.5;exitY=1;exitDx=0;exitDy=0;fontFamily=Architects Daughter;fontSource=https%3A%2F%2Ffonts.googleapis.com%2Fcss%3Ffamily%3DArchitects%2BDaughter;" edge="1" parent="pmeenIg2T-Wo_KydRhbx-6" source="pmeenIg2T-Wo_KydRhbx-3" target="pmeenIg2T-Wo_KydRhbx-3">
          <mxGeometry relative="1" as="geometry" />
        </mxCell>
        <mxCell id="pmeenIg2T-Wo_KydRhbx-7" value="" style="group;aspect=fixed;" vertex="1" connectable="0" parent="pmeenIg2T-Wo_KydRhbx-96">
          <mxGeometry x="210" y="840" width="50" height="50" as="geometry" />
        </mxCell>
        <mxCell id="pmeenIg2T-Wo_KydRhbx-2" value="" style="strokeWidth=2;html=1;shape=mxgraph.flowchart.start_2;whiteSpace=wrap;rounded=0;labelBackgroundColor=none;strokeColor=#000000;align=center;verticalAlign=middle;fontFamily=Helvetica;fontSize=12;fontColor=default;fillColor=#d5e8d4;" vertex="1" parent="pmeenIg2T-Wo_KydRhbx-7">
          <mxGeometry width="50" height="50" as="geometry" />
        </mxCell>
        <mxCell id="pmeenIg2T-Wo_KydRhbx-5" value="&lt;b&gt;&lt;font style=&quot;font-size: 22px;&quot; color=&quot;#000000&quot; face=&quot;Comic Sans MS&quot;&gt;F&lt;/font&gt;&lt;/b&gt;" style="text;strokeColor=none;align=center;fillColor=none;html=1;verticalAlign=middle;whiteSpace=wrap;rounded=0;fontFamily=Architects Daughter;fontSource=https://fonts.googleapis.com/css?family=Architects+Daughter;" vertex="1" parent="pmeenIg2T-Wo_KydRhbx-7">
          <mxGeometry x="10" y="10" width="30" height="30" as="geometry" />
        </mxCell>
        <mxCell id="pmeenIg2T-Wo_KydRhbx-12" value="" style="group;aspect=fixed;" vertex="1" connectable="0" parent="pmeenIg2T-Wo_KydRhbx-96">
          <mxGeometry x="150" y="80" width="170" height="55" as="geometry" />
        </mxCell>
        <mxCell id="pmeenIg2T-Wo_KydRhbx-8" value="" style="rounded=0;whiteSpace=wrap;html=1;labelBackgroundColor=none;strokeColor=#0f100e;strokeWidth=2;align=center;verticalAlign=middle;fontFamily=Helvetica;fontSize=12;fontColor=default;fillColor=#d5e8d4;" vertex="1" parent="pmeenIg2T-Wo_KydRhbx-12">
          <mxGeometry width="170" height="55" as="geometry" />
        </mxCell>
        <mxCell id="pmeenIg2T-Wo_KydRhbx-9" value="&lt;font face=&quot;Comic Sans MS&quot; color=&quot;#000000&quot;&gt;&lt;span style=&quot;font-size: 15px;&quot;&gt;&lt;b&gt;int num, maximo&lt;/b&gt;&lt;/span&gt;&lt;/font&gt;&lt;div&gt;&lt;font face=&quot;Comic Sans MS&quot; color=&quot;#000000&quot;&gt;&lt;span style=&quot;font-size: 15px;&quot;&gt;&lt;b&gt;bool bandera = true&lt;/b&gt;&lt;/span&gt;&lt;/font&gt;&lt;/div&gt;" style="text;strokeColor=none;align=center;fillColor=none;html=1;verticalAlign=middle;whiteSpace=wrap;rounded=0;fontFamily=Architects Daughter;fontSource=https%3A%2F%2Ffonts.googleapis.com%2Fcss%3Ffamily%3DArchitects%2BDaughter;" vertex="1" parent="pmeenIg2T-Wo_KydRhbx-12">
          <mxGeometry x="5" y="2.5" width="160" height="50" as="geometry" />
        </mxCell>
        <mxCell id="pmeenIg2T-Wo_KydRhbx-19" value="" style="group;aspect=fixed;" vertex="1" connectable="0" parent="pmeenIg2T-Wo_KydRhbx-96">
          <mxGeometry x="170" y="170" width="130" height="40" as="geometry" />
        </mxCell>
        <mxCell id="pmeenIg2T-Wo_KydRhbx-16" value="" style="shape=trapezoid;perimeter=trapezoidPerimeter;whiteSpace=wrap;html=1;fixedSize=1;rounded=0;labelBackgroundColor=none;strokeColor=#121211;strokeWidth=2;align=center;verticalAlign=middle;fontFamily=Helvetica;fontSize=12;fontColor=default;fillColor=#d5e8d4;direction=west;container=0;" vertex="1" parent="pmeenIg2T-Wo_KydRhbx-19">
          <mxGeometry width="130" height="40" as="geometry">
            <mxRectangle x="-1020" y="-650" width="50" height="40" as="alternateBounds" />
          </mxGeometry>
        </mxCell>
        <mxCell id="pmeenIg2T-Wo_KydRhbx-18" value="&lt;b&gt;&lt;font style=&quot;font-size: 17px;&quot; color=&quot;#000000&quot; face=&quot;Comic Sans MS&quot;&gt;num&lt;/font&gt;&lt;/b&gt;" style="text;strokeColor=none;align=center;fillColor=none;html=1;verticalAlign=middle;whiteSpace=wrap;rounded=0;fontFamily=Architects Daughter;fontSource=https://fonts.googleapis.com/css?family=Architects+Daughter;container=0;" vertex="1" parent="pmeenIg2T-Wo_KydRhbx-19">
          <mxGeometry x="35" y="5" width="60" height="30" as="geometry" />
        </mxCell>
        <mxCell id="pmeenIg2T-Wo_KydRhbx-43" value="" style="group;aspect=fixed;" vertex="1" connectable="0" parent="pmeenIg2T-Wo_KydRhbx-96">
          <mxGeometry x="165" y="770" width="140" height="40" as="geometry" />
        </mxCell>
        <mxCell id="pmeenIg2T-Wo_KydRhbx-41" value="" style="shape=trapezoid;perimeter=trapezoidPerimeter;whiteSpace=wrap;html=1;fixedSize=1;rounded=0;labelBackgroundColor=none;strokeColor=#0F140C;strokeWidth=2;align=center;verticalAlign=middle;fontFamily=Helvetica;fontSize=12;fontColor=default;fillColor=#d5e8d4;" vertex="1" parent="pmeenIg2T-Wo_KydRhbx-43">
          <mxGeometry width="140" height="40" as="geometry" />
        </mxCell>
        <mxCell id="pmeenIg2T-Wo_KydRhbx-42" value="&lt;b&gt;&lt;font style=&quot;font-size: 17px;&quot; color=&quot;#000000&quot; face=&quot;Comic Sans MS&quot;&gt;maximo&lt;/font&gt;&lt;/b&gt;" style="text;strokeColor=none;align=center;fillColor=none;html=1;verticalAlign=middle;whiteSpace=wrap;rounded=0;fontFamily=Architects Daughter;fontSource=https://fonts.googleapis.com/css?family=Architects+Daughter;" vertex="1" parent="pmeenIg2T-Wo_KydRhbx-43">
          <mxGeometry x="40" y="5" width="60" height="30" as="geometry" />
        </mxCell>
        <mxCell id="pmeenIg2T-Wo_KydRhbx-47" value="" style="group;aspect=fixed;" vertex="1" connectable="0" parent="pmeenIg2T-Wo_KydRhbx-96">
          <mxGeometry y="260" width="470" height="470" as="geometry" />
        </mxCell>
        <mxCell id="pmeenIg2T-Wo_KydRhbx-45" value="" style="whiteSpace=wrap;html=1;rounded=0;labelBackgroundColor=none;strokeColor=#1A1A1A;strokeWidth=3;align=center;verticalAlign=middle;fontFamily=Helvetica;fontSize=12;fontColor=default;fillColor=#d5e8d4;container=0;" vertex="1" parent="pmeenIg2T-Wo_KydRhbx-47">
          <mxGeometry width="470" height="470" as="geometry" />
        </mxCell>
        <mxCell id="pmeenIg2T-Wo_KydRhbx-46" value="" style="edgeStyle=none;orthogonalLoop=1;jettySize=auto;html=1;rounded=0;strokeColor=#000000;fontFamily=Helvetica;fontSize=12;fontColor=default;fillColor=#B2C9AB;startArrow=none;startFill=0;endArrow=none;endFill=0;endSize=7;strokeWidth=2;" edge="1" parent="pmeenIg2T-Wo_KydRhbx-47">
          <mxGeometry width="80" relative="1" as="geometry">
            <mxPoint x="470" y="47.41935483870964" as="sourcePoint" />
            <mxPoint y="47.41935483870964" as="targetPoint" />
            <Array as="points" />
          </mxGeometry>
        </mxCell>
        <mxCell id="pmeenIg2T-Wo_KydRhbx-48" value="&lt;b&gt;&lt;font style=&quot;font-size: 18px;&quot; color=&quot;#000000&quot; face=&quot;Comic Sans MS&quot;&gt;num != 0&lt;/font&gt;&lt;/b&gt;" style="text;strokeColor=none;align=center;fillColor=none;html=1;verticalAlign=middle;whiteSpace=wrap;rounded=0;fontFamily=Architects Daughter;fontSource=https://fonts.googleapis.com/css?family=Architects+Daughter;" vertex="1" parent="pmeenIg2T-Wo_KydRhbx-47">
          <mxGeometry x="165" y="10" width="140" height="30" as="geometry" />
        </mxCell>
        <mxCell id="pmeenIg2T-Wo_KydRhbx-49" value="" style="group;aspect=fixed;" vertex="1" connectable="0" parent="pmeenIg2T-Wo_KydRhbx-47">
          <mxGeometry x="185" y="80" width="100" height="110" as="geometry" />
        </mxCell>
        <mxCell id="pmeenIg2T-Wo_KydRhbx-50" value="" style="rhombus;whiteSpace=wrap;html=1;rounded=0;labelBackgroundColor=none;strokeColor=#0F140C;strokeWidth=2;align=center;verticalAlign=middle;fontFamily=Helvetica;fontSize=12;fontColor=default;fillColor=#d5e8d4;" vertex="1" parent="pmeenIg2T-Wo_KydRhbx-49">
          <mxGeometry width="100" height="110" as="geometry" />
        </mxCell>
        <mxCell id="pmeenIg2T-Wo_KydRhbx-51" value="&lt;b&gt;&lt;font style=&quot;font-size: 15px;&quot; color=&quot;#000000&quot; face=&quot;Comic Sans MS&quot;&gt;bandera&lt;/font&gt;&lt;/b&gt;" style="text;strokeColor=none;align=center;fillColor=none;html=1;verticalAlign=middle;whiteSpace=wrap;rounded=0;fontFamily=Architects Daughter;fontSource=https://fonts.googleapis.com/css?family=Architects+Daughter;" vertex="1" parent="pmeenIg2T-Wo_KydRhbx-49">
          <mxGeometry x="20" y="40" width="60" height="30" as="geometry" />
        </mxCell>
        <mxCell id="pmeenIg2T-Wo_KydRhbx-52" value="" style="group;aspect=fixed;" vertex="1" connectable="0" parent="pmeenIg2T-Wo_KydRhbx-47">
          <mxGeometry x="60" y="190" width="150" height="60" as="geometry" />
        </mxCell>
        <mxCell id="pmeenIg2T-Wo_KydRhbx-53" value="" style="rounded=0;whiteSpace=wrap;html=1;labelBackgroundColor=none;strokeColor=#0f100e;strokeWidth=2;align=center;verticalAlign=middle;fontFamily=Helvetica;fontSize=12;fontColor=default;fillColor=#d5e8d4;" vertex="1" parent="pmeenIg2T-Wo_KydRhbx-52">
          <mxGeometry x="10" y="10" width="130" height="40" as="geometry" />
        </mxCell>
        <mxCell id="pmeenIg2T-Wo_KydRhbx-54" value="&lt;b&gt;&lt;font style=&quot;font-size: 15px;&quot; color=&quot;#000000&quot; face=&quot;Comic Sans MS&quot;&gt;maximo = num&lt;/font&gt;&lt;/b&gt;&lt;div&gt;&lt;b&gt;&lt;font style=&quot;font-size: 15px;&quot; color=&quot;#000000&quot; face=&quot;Comic Sans MS&quot;&gt;bandera = false&lt;/font&gt;&lt;/b&gt;&lt;/div&gt;" style="text;strokeColor=none;align=center;fillColor=none;html=1;verticalAlign=middle;whiteSpace=wrap;rounded=0;fontFamily=Architects Daughter;fontSource=https://fonts.googleapis.com/css?family=Architects+Daughter;" vertex="1" parent="pmeenIg2T-Wo_KydRhbx-52">
          <mxGeometry width="150" height="60" as="geometry" />
        </mxCell>
        <mxCell id="pmeenIg2T-Wo_KydRhbx-55" value="" style="group;aspect=fixed;" vertex="1" connectable="0" parent="pmeenIg2T-Wo_KydRhbx-47">
          <mxGeometry x="290" y="180" width="100" height="110" as="geometry" />
        </mxCell>
        <mxCell id="pmeenIg2T-Wo_KydRhbx-56" value="" style="rhombus;whiteSpace=wrap;html=1;rounded=0;labelBackgroundColor=none;strokeColor=#0F140C;strokeWidth=2;align=center;verticalAlign=middle;fontFamily=Helvetica;fontSize=12;fontColor=default;fillColor=#d5e8d4;container=0;" vertex="1" parent="pmeenIg2T-Wo_KydRhbx-55">
          <mxGeometry width="100" height="110" as="geometry" />
        </mxCell>
        <mxCell id="pmeenIg2T-Wo_KydRhbx-57" value="&lt;b&gt;&lt;font style=&quot;font-size: 15px;&quot; color=&quot;#000000&quot; face=&quot;Comic Sans MS&quot;&gt;num&lt;/font&gt;&lt;/b&gt;&lt;div&gt;&lt;b&gt;&lt;font style=&quot;font-size: 15px;&quot; color=&quot;#000000&quot; face=&quot;Comic Sans MS&quot;&gt;&amp;gt;&lt;/font&gt;&lt;/b&gt;&lt;/div&gt;&lt;div&gt;&lt;b&gt;&lt;font style=&quot;font-size: 15px;&quot; color=&quot;#000000&quot; face=&quot;Comic Sans MS&quot;&gt;maximo&lt;/font&gt;&lt;/b&gt;&lt;/div&gt;" style="text;strokeColor=none;align=center;fillColor=none;html=1;verticalAlign=middle;whiteSpace=wrap;rounded=0;fontFamily=Architects Daughter;fontSource=https://fonts.googleapis.com/css?family=Architects+Daughter;container=0;" vertex="1" parent="pmeenIg2T-Wo_KydRhbx-55">
          <mxGeometry x="20" y="35" width="60" height="30" as="geometry" />
        </mxCell>
        <mxCell id="pmeenIg2T-Wo_KydRhbx-58" value="" style="group;aspect=fixed;" vertex="1" connectable="0" parent="pmeenIg2T-Wo_KydRhbx-47">
          <mxGeometry x="175" y="290" width="130" height="40" as="geometry" />
        </mxCell>
        <mxCell id="pmeenIg2T-Wo_KydRhbx-59" value="" style="rounded=0;whiteSpace=wrap;html=1;labelBackgroundColor=none;strokeColor=#0f100e;strokeWidth=2;align=center;verticalAlign=middle;fontFamily=Helvetica;fontSize=12;fontColor=default;fillColor=#d5e8d4;" vertex="1" parent="pmeenIg2T-Wo_KydRhbx-58">
          <mxGeometry width="130" height="40" as="geometry" />
        </mxCell>
        <mxCell id="pmeenIg2T-Wo_KydRhbx-60" value="&lt;font face=&quot;Comic Sans MS&quot; color=&quot;#000000&quot;&gt;&lt;span style=&quot;font-size: 15px;&quot;&gt;&lt;b&gt;maximo = num&lt;/b&gt;&lt;/span&gt;&lt;/font&gt;" style="text;strokeColor=none;align=center;fillColor=none;html=1;verticalAlign=middle;whiteSpace=wrap;rounded=0;fontFamily=Architects Daughter;fontSource=https://fonts.googleapis.com/css?family=Architects+Daughter;" vertex="1" parent="pmeenIg2T-Wo_KydRhbx-58">
          <mxGeometry x="10" y="5" width="110" height="30" as="geometry" />
        </mxCell>
        <mxCell id="pmeenIg2T-Wo_KydRhbx-61" value="" style="group;aspect=fixed;" vertex="1" connectable="0" parent="pmeenIg2T-Wo_KydRhbx-47">
          <mxGeometry x="170" y="420" width="130" height="40" as="geometry" />
        </mxCell>
        <mxCell id="pmeenIg2T-Wo_KydRhbx-62" value="" style="shape=trapezoid;perimeter=trapezoidPerimeter;whiteSpace=wrap;html=1;fixedSize=1;rounded=0;labelBackgroundColor=none;strokeColor=#121211;strokeWidth=2;align=center;verticalAlign=middle;fontFamily=Helvetica;fontSize=12;fontColor=default;fillColor=#d5e8d4;direction=west;container=0;" vertex="1" parent="pmeenIg2T-Wo_KydRhbx-61">
          <mxGeometry width="130" height="40" as="geometry">
            <mxRectangle x="-1020" y="-650" width="50" height="40" as="alternateBounds" />
          </mxGeometry>
        </mxCell>
        <mxCell id="pmeenIg2T-Wo_KydRhbx-63" value="&lt;b&gt;&lt;font style=&quot;font-size: 17px;&quot; color=&quot;#000000&quot; face=&quot;Comic Sans MS&quot;&gt;num&lt;/font&gt;&lt;/b&gt;" style="text;strokeColor=none;align=center;fillColor=none;html=1;verticalAlign=middle;whiteSpace=wrap;rounded=0;fontFamily=Architects Daughter;fontSource=https://fonts.googleapis.com/css?family=Architects+Daughter;container=0;" vertex="1" parent="pmeenIg2T-Wo_KydRhbx-61">
          <mxGeometry x="35" y="5" width="60" height="30" as="geometry" />
        </mxCell>
        <mxCell id="pmeenIg2T-Wo_KydRhbx-75" value="" style="line;strokeWidth=2;direction=south;html=1;hachureGap=4;fontFamily=Architects Daughter;fontSource=https://fonts.googleapis.com/css?family=Architects+Daughter;strokeColor=#000000;" vertex="1" parent="pmeenIg2T-Wo_KydRhbx-61">
          <mxGeometry x="60" y="-30" width="10" height="30" as="geometry" />
        </mxCell>
        <mxCell id="pmeenIg2T-Wo_KydRhbx-82" value="" style="line;strokeWidth=2;html=1;perimeter=backbonePerimeter;points=[];outlineConnect=0;hachureGap=4;fontFamily=Architects Daughter;fontSource=https://fonts.googleapis.com/css?family=Architects+Daughter;strokeColor=#000000;" vertex="1" parent="pmeenIg2T-Wo_KydRhbx-47">
          <mxGeometry x="130" y="130" width="55" height="10" as="geometry" />
        </mxCell>
        <mxCell id="pmeenIg2T-Wo_KydRhbx-69" value="" style="line;strokeWidth=2;direction=south;html=1;hachureGap=4;fontFamily=Architects Daughter;fontSource=https://fonts.googleapis.com/css?family=Architects+Daughter;strokeColor=#000000;" vertex="1" parent="pmeenIg2T-Wo_KydRhbx-47">
          <mxGeometry x="127" y="135" width="10" height="65" as="geometry" />
        </mxCell>
        <mxCell id="pmeenIg2T-Wo_KydRhbx-81" value="" style="line;strokeWidth=2;html=1;perimeter=backbonePerimeter;points=[];outlineConnect=0;hachureGap=4;fontFamily=Architects Daughter;fontSource=https://fonts.googleapis.com/css?family=Architects+Daughter;strokeColor=#000000;" vertex="1" parent="pmeenIg2T-Wo_KydRhbx-47">
          <mxGeometry x="285" y="130" width="55" height="10" as="geometry" />
        </mxCell>
        <mxCell id="pmeenIg2T-Wo_KydRhbx-68" value="" style="line;strokeWidth=2;direction=south;html=1;hachureGap=4;fontFamily=Architects Daughter;fontSource=https://fonts.googleapis.com/css?family=Architects+Daughter;strokeColor=#000000;" vertex="1" parent="pmeenIg2T-Wo_KydRhbx-47">
          <mxGeometry x="335" y="133" width="10" height="50" as="geometry" />
        </mxCell>
        <mxCell id="pmeenIg2T-Wo_KydRhbx-71" value="" style="line;strokeWidth=2;direction=south;html=1;hachureGap=4;fontFamily=Architects Daughter;fontSource=https://fonts.googleapis.com/css?family=Architects+Daughter;strokeColor=#000000;" vertex="1" parent="pmeenIg2T-Wo_KydRhbx-47">
          <mxGeometry x="127" y="240" width="10" height="150" as="geometry" />
        </mxCell>
        <mxCell id="pmeenIg2T-Wo_KydRhbx-77" value="" style="line;strokeWidth=2;html=1;perimeter=backbonePerimeter;points=[];outlineConnect=0;hachureGap=4;fontFamily=Architects Daughter;fontSource=https://fonts.googleapis.com/css?family=Architects+Daughter;strokeColor=#000000;" vertex="1" parent="pmeenIg2T-Wo_KydRhbx-47">
          <mxGeometry x="240" y="230" width="50" height="10" as="geometry" />
        </mxCell>
        <mxCell id="pmeenIg2T-Wo_KydRhbx-78" value="" style="line;strokeWidth=2;html=1;perimeter=backbonePerimeter;points=[];outlineConnect=0;hachureGap=4;fontFamily=Architects Daughter;fontSource=https://fonts.googleapis.com/css?family=Architects+Daughter;strokeColor=#000000;" vertex="1" parent="pmeenIg2T-Wo_KydRhbx-47">
          <mxGeometry x="390" y="230" width="50" height="10" as="geometry" />
        </mxCell>
        <mxCell id="pmeenIg2T-Wo_KydRhbx-76" value="" style="line;strokeWidth=2;direction=south;html=1;hachureGap=4;fontFamily=Architects Daughter;fontSource=https://fonts.googleapis.com/css?family=Architects+Daughter;strokeColor=#000000;" vertex="1" parent="pmeenIg2T-Wo_KydRhbx-47">
          <mxGeometry x="237" y="233" width="10" height="57" as="geometry" />
        </mxCell>
        <mxCell id="pmeenIg2T-Wo_KydRhbx-72" value="" style="line;strokeWidth=2;direction=south;html=1;hachureGap=4;fontFamily=Architects Daughter;fontSource=https://fonts.googleapis.com/css?family=Architects+Daughter;strokeColor=#000000;" vertex="1" parent="pmeenIg2T-Wo_KydRhbx-47">
          <mxGeometry x="432" y="234.5" width="10" height="125.5" as="geometry" />
        </mxCell>
        <mxCell id="pmeenIg2T-Wo_KydRhbx-73" value="" style="line;strokeWidth=2;direction=south;html=1;hachureGap=4;fontFamily=Architects Daughter;fontSource=https://fonts.googleapis.com/css?family=Architects+Daughter;strokeColor=#000000;" vertex="1" parent="pmeenIg2T-Wo_KydRhbx-47">
          <mxGeometry x="237" y="330" width="10" height="30" as="geometry" />
        </mxCell>
        <mxCell id="pmeenIg2T-Wo_KydRhbx-79" value="" style="line;strokeWidth=2;html=1;perimeter=backbonePerimeter;points=[];outlineConnect=0;hachureGap=4;fontFamily=Architects Daughter;fontSource=https://fonts.googleapis.com/css?family=Architects+Daughter;strokeColor=#000000;" vertex="1" parent="pmeenIg2T-Wo_KydRhbx-47">
          <mxGeometry x="240" y="353" width="200" height="10" as="geometry" />
        </mxCell>
        <mxCell id="pmeenIg2T-Wo_KydRhbx-70" value="" style="line;strokeWidth=2;direction=south;html=1;hachureGap=4;fontFamily=Architects Daughter;fontSource=https://fonts.googleapis.com/css?family=Architects+Daughter;strokeColor=#000000;" vertex="1" parent="pmeenIg2T-Wo_KydRhbx-47">
          <mxGeometry x="340" y="358" width="10" height="32" as="geometry" />
        </mxCell>
        <mxCell id="pmeenIg2T-Wo_KydRhbx-88" value="" style="line;strokeWidth=2;html=1;perimeter=backbonePerimeter;points=[];outlineConnect=0;hachureGap=4;fontFamily=Architects Daughter;fontSource=https://fonts.googleapis.com/css?family=Architects+Daughter;strokeColor=#000000;" vertex="1" parent="pmeenIg2T-Wo_KydRhbx-47">
          <mxGeometry x="130" y="386" width="215" height="10" as="geometry" />
        </mxCell>
        <mxCell id="pmeenIg2T-Wo_KydRhbx-92" value="&lt;b&gt;&lt;font color=&quot;#000000&quot; style=&quot;font-size: 14px;&quot; face=&quot;Comic Sans MS&quot;&gt;V&lt;/font&gt;&lt;/b&gt;" style="text;strokeColor=none;align=center;fillColor=none;html=1;verticalAlign=middle;whiteSpace=wrap;rounded=0;fontFamily=Architects Daughter;fontSource=https%3A%2F%2Ffonts.googleapis.com%2Fcss%3Ffamily%3DArchitects%2BDaughter;" vertex="1" parent="pmeenIg2T-Wo_KydRhbx-47">
          <mxGeometry x="113" y="112" width="40" height="30" as="geometry" />
        </mxCell>
        <mxCell id="pmeenIg2T-Wo_KydRhbx-94" value="&lt;b&gt;&lt;font color=&quot;#000000&quot; style=&quot;font-size: 14px;&quot; face=&quot;Comic Sans MS&quot;&gt;F&lt;/font&gt;&lt;/b&gt;" style="text;strokeColor=none;align=center;fillColor=none;html=1;verticalAlign=middle;whiteSpace=wrap;rounded=0;fontFamily=Architects Daughter;fontSource=https://fonts.googleapis.com/css?family=Architects+Daughter;" vertex="1" parent="pmeenIg2T-Wo_KydRhbx-47">
          <mxGeometry x="317" y="112" width="40" height="30" as="geometry" />
        </mxCell>
        <mxCell id="pmeenIg2T-Wo_KydRhbx-93" value="&lt;b&gt;&lt;font color=&quot;#000000&quot; style=&quot;font-size: 14px;&quot; face=&quot;Comic Sans MS&quot;&gt;V&lt;/font&gt;&lt;/b&gt;" style="text;strokeColor=none;align=center;fillColor=none;html=1;verticalAlign=middle;whiteSpace=wrap;rounded=0;fontFamily=Architects Daughter;fontSource=https://fonts.googleapis.com/css?family=Architects+Daughter;" vertex="1" parent="pmeenIg2T-Wo_KydRhbx-47">
          <mxGeometry x="224" y="211" width="40" height="30" as="geometry" />
        </mxCell>
        <mxCell id="pmeenIg2T-Wo_KydRhbx-95" value="&lt;b&gt;&lt;font color=&quot;#000000&quot; style=&quot;font-size: 14px;&quot; face=&quot;Comic Sans MS&quot;&gt;F&lt;/font&gt;&lt;/b&gt;" style="text;strokeColor=none;align=center;fillColor=none;html=1;verticalAlign=middle;whiteSpace=wrap;rounded=0;fontFamily=Architects Daughter;fontSource=https://fonts.googleapis.com/css?family=Architects+Daughter;" vertex="1" parent="pmeenIg2T-Wo_KydRhbx-47">
          <mxGeometry x="413" y="212" width="40" height="30" as="geometry" />
        </mxCell>
        <mxCell id="pmeenIg2T-Wo_KydRhbx-64" value="" style="line;strokeWidth=2;direction=south;html=1;hachureGap=4;fontFamily=Architects Daughter;fontSource=https://fonts.googleapis.com/css?family=Architects+Daughter;strokeColor=#000000;" vertex="1" parent="pmeenIg2T-Wo_KydRhbx-96">
          <mxGeometry x="230" y="730" width="10" height="40" as="geometry" />
        </mxCell>
        <mxCell id="pmeenIg2T-Wo_KydRhbx-65" value="" style="line;strokeWidth=2;direction=south;html=1;hachureGap=4;fontFamily=Architects Daughter;fontSource=https://fonts.googleapis.com/css?family=Architects+Daughter;strokeColor=#000000;" vertex="1" parent="pmeenIg2T-Wo_KydRhbx-96">
          <mxGeometry x="230" y="210" width="10" height="50" as="geometry" />
        </mxCell>
        <mxCell id="pmeenIg2T-Wo_KydRhbx-66" value="" style="line;strokeWidth=2;direction=south;html=1;hachureGap=4;fontFamily=Architects Daughter;fontSource=https://fonts.googleapis.com/css?family=Architects+Daughter;strokeColor=#000000;" vertex="1" parent="pmeenIg2T-Wo_KydRhbx-96">
          <mxGeometry x="230" y="50" width="10" height="30" as="geometry" />
        </mxCell>
        <mxCell id="pmeenIg2T-Wo_KydRhbx-67" value="" style="line;strokeWidth=2;direction=south;html=1;hachureGap=4;fontFamily=Architects Daughter;fontSource=https://fonts.googleapis.com/css?family=Architects+Daughter;strokeColor=#000000;" vertex="1" parent="pmeenIg2T-Wo_KydRhbx-96">
          <mxGeometry x="230" y="135" width="10" height="35" as="geometry" />
        </mxCell>
        <mxCell id="pmeenIg2T-Wo_KydRhbx-91" value="" style="line;strokeWidth=2;direction=south;html=1;hachureGap=4;fontFamily=Architects Daughter;fontSource=https://fonts.googleapis.com/css?family=Architects+Daughter;strokeColor=#000000;" vertex="1" parent="pmeenIg2T-Wo_KydRhbx-96">
          <mxGeometry x="230" y="810" width="10" height="30" as="geometry" />
        </mxCell>
      </root>
    </mxGraphModel>
  </diagram>
</mxfile>
